<svg width="66" height="66" viewBox="0 0 66 66" fill="none" xmlns="http://www.w3.org/2000/svg">
<rect width="66" height="66" fill="white"/>
<path d="M17.4172 7H47.7791V10.8492H17.4172V7Z" fill="black"/>
<path d="M47.7791 10.8492H53.7914V14.6983H47.7791V10.8492Z" fill="black"/>
<path d="M47.7791 28.0223H53.7914V31.8715H47.7791V28.0223Z" fill="black"/>
<path d="M37.8589 31.8715H47.7791V35.7207H37.8589V31.8715Z" fill="black"/>
<path d="M27.9387 31.8715H37.8589V35.7207H27.9387V31.8715Z" fill="black"/>
<path d="M13.2086 10.8492H17.4172V14.6983H13.2086V10.8492Z" fill="black"/>
<path d="M53.7914 14.6983H58V28.0223H53.7914V14.6983Z" fill="black"/>
<path d="M9 14.6983H13.2086V52.3017H9V14.6983Z" fill="black"/>
<path d="M23.7301 28.0223H27.9387V31.8715H23.7301V28.0223Z" fill="black"/>
<path d="M30.3436 21.5084H34.5521V25.3575H30.3436V21.5084Z" fill="black"/>
<path d="M23.7301 56.1508H37.8589V60H23.7301V56.1508Z" fill="black"/>
<path d="M13.2086 52.3017H23.7301V56.1508H13.2086V52.3017Z" fill="black"/>
<path d="M42.0675 21.5084H46.2761V25.3575H42.0675V21.5084Z" fill="black"/>
<path d="M37.8589 32.7598H42.0675V56.1508H37.8589V32.7598Z" fill="black"/>
</svg>
