<svg width="59" height="59" viewBox="0 0 59 59" fill="none" xmlns="http://www.w3.org/2000/svg">
<path fill-rule="evenodd" clip-rule="evenodd" d="M0.855755 45.3546C0.855755 54.6141 9.42722 58.7663 17.8079 58.7922C37.4169 58.7922 59.1124 46.7874 58.9996 26.6972C58.9182 12.213 45.5557 -0.117649 29.7433 0.000847037C14.6968 0.000847037 0.000993712 9.78554 0 23.1156C0 26.6954 2.06195 30.1585 7.45199 30.5484C2.95783 34.9808 0.855755 40.2915 0.855755 45.3546ZM29.795 32.2641C32.9383 32.2641 35.4864 29.2146 35.4864 25.4528C35.4864 21.691 32.9383 18.6415 29.795 18.6415C26.6518 18.6415 24.1037 21.691 24.1037 25.4528C24.1037 29.2146 26.6518 32.2641 29.795 32.2641ZM46.1135 32.2642C49.2568 32.2642 51.8049 29.2146 51.8049 25.4528C51.8049 21.691 49.2568 18.6415 46.1135 18.6415C42.9703 18.6415 40.4222 21.691 40.4222 25.4528C40.4222 29.2146 42.9703 32.2642 46.1135 32.2642Z" fill="#FF8271"/>
</svg>
