<svg width="2078" height="2078" viewBox="0 0 2078 2078" fill="none" xmlns="http://www.w3.org/2000/svg">
<rect width="2076" height="2076" transform="translate(1 1)" fill="#110F2A"/>
<path d="M2077 1.00391H1.00293V2077H2077V1.00391Z" stroke="#535382" stroke-width="1.5"/>
<path d="M1917.02 160.975H160.974V1917.02H1917.02V160.975Z" stroke="#535382" stroke-width="1.5"/>
<path d="M1772.29 305.71H305.71V1772.29H1772.29V305.71Z" stroke="#535382" stroke-width="1.5"/>
<path d="M1642.79 435.212H435.21V1642.79H1642.79V435.212Z" stroke="#535382" stroke-width="1.5"/>
<path d="M1528.52 549.477H549.476V1528.52H1528.52V549.477Z" stroke="#535382" stroke-width="1.5"/>
<path d="M1429.49 648.506H648.506V1429.49H1429.49V648.506Z" stroke="#535382" stroke-width="1.5"/>
<path d="M1345.7 732.302H732.301V1345.7H1345.7V732.302Z" stroke="#535382" stroke-width="1.5"/>
<path d="M1277.14 800.86H800.86V1277.14H1277.14V800.86Z" stroke="#535382" stroke-width="1.5"/>
<path d="M1223.81 854.183H854.184V1223.81H1223.81V854.183Z" stroke="#535382" stroke-width="1.5"/>
<path d="M1185.73 892.273H892.272V1185.73H1185.73V892.273Z" stroke="#535382" stroke-width="1.5"/>
<path d="M1155.25 922.743H922.743V1155.25H1155.25V922.743Z" stroke="#535382" stroke-width="1.5"/>
<path d="M922.742 1155.25L0.999911 2077" stroke="#535382" stroke-width="1.5"/>
<path d="M943.88 1155.25L253.873 2077" stroke="#535382" stroke-width="1.5"/>
<path d="M965.017 1155.25L461.708 2077" stroke="#535382" stroke-width="1.5"/>
<path d="M986.155 1155.25L642.363 2077" stroke="#535382" stroke-width="1.5"/>
<path d="M1007.29 1155.25L806.779 2077" stroke="#535382" stroke-width="1.5"/>
<path d="M1028.43 1155.25L962.506 2077" stroke="#535382" stroke-width="1.5"/>
<path d="M1049.57 1155.25L1115.49 2077" stroke="#535382" stroke-width="1.5"/>
<path d="M1070.71 1155.25L1271.22 2077" stroke="#535382" stroke-width="1.5"/>
<path d="M1091.84 1155.25L1435.63 2077" stroke="#535382" stroke-width="1.5"/>
<path d="M1112.98 1155.25L1616.29 2077" stroke="#535382" stroke-width="1.5"/>
<path d="M1134.12 1155.25L1824.12 2077" stroke="#535382" stroke-width="1.5"/>
<path d="M1155.25 1155.25L2077 2077" stroke="#535382" stroke-width="1.5"/>
<path d="M922.744 922.743L1.00183 1.00095" stroke="#535382" stroke-width="1.5"/>
<path d="M922.744 943.879L1.00218 253.872" stroke="#535382" stroke-width="1.5"/>
<path d="M922.744 965.016L1.00188 461.707" stroke="#535382" stroke-width="1.5"/>
<path d="M922.744 986.155L1.002 642.363" stroke="#535382" stroke-width="1.5"/>
<path d="M922.744 1007.29L1.00213 806.782" stroke="#535382" stroke-width="1.5"/>
<path d="M922.744 1028.43L1.00187 962.504" stroke="#535382" stroke-width="1.5"/>
<path d="M922.744 1049.57L1.00187 1115.49" stroke="#535382" stroke-width="1.5"/>
<path d="M922.744 1070.7L1.00213 1271.22" stroke="#535382" stroke-width="1.5"/>
<path d="M922.744 1091.84L1.00191 1435.63" stroke="#535382" stroke-width="1.5"/>
<path d="M922.744 1112.98L1.00188 1616.29" stroke="#535382" stroke-width="1.5"/>
<path d="M922.744 1134.12L1.00209 1824.12" stroke="#535382" stroke-width="1.5"/>
<path d="M922.744 1155.25L1.00183 2077" stroke="#535382" stroke-width="1.5"/>
<path d="M1155.25 922.742L2077 0.999728" stroke="#535382" stroke-width="1.5"/>
<path d="M1134.12 922.742L1824.12 0.999984" stroke="#535382" stroke-width="1.5"/>
<path d="M1112.98 922.742L1616.29 0.999776" stroke="#535382" stroke-width="1.5"/>
<path d="M1091.84 922.742L1435.63 0.999802" stroke="#535382" stroke-width="1.5"/>
<path d="M1070.71 922.742L1271.22 1.00003" stroke="#535382" stroke-width="1.5"/>
<path d="M1049.57 922.742L1115.49 0.999766" stroke="#535382" stroke-width="1.5"/>
<path d="M1028.43 922.742L962.506 0.999766" stroke="#535382" stroke-width="1.5"/>
<path d="M1007.29 922.742L806.78 1.00003" stroke="#535382" stroke-width="1.5"/>
<path d="M986.155 922.742L642.363 0.999802" stroke="#535382" stroke-width="1.5"/>
<path d="M965.017 922.742L461.708 0.999776" stroke="#535382" stroke-width="1.5"/>
<path d="M943.88 922.742L253.873 0.999984" stroke="#535382" stroke-width="1.5"/>
<path d="M922.743 922.742L1.0004 0.999728" stroke="#535382" stroke-width="1.5"/>
<path d="M1155.25 1155.26L2077 2077" stroke="#535382" stroke-width="1.5"/>
<path d="M1155.25 1134.12L2077 1824.13" stroke="#535382" stroke-width="1.5"/>
<path d="M1155.25 1112.98L2077 1616.29" stroke="#535382" stroke-width="1.5"/>
<path d="M1155.25 1091.85L2077 1435.64" stroke="#535382" stroke-width="1.5"/>
<path d="M1155.25 1070.71L2077 1271.22" stroke="#535382" stroke-width="1.5"/>
<path d="M1155.25 1049.57L2077 1115.5" stroke="#535382" stroke-width="1.5"/>
<path d="M1155.25 1028.43L2077 962.509" stroke="#535382" stroke-width="1.5"/>
<path d="M1155.25 1007.3L2077 806.784" stroke="#535382" stroke-width="1.5"/>
<path d="M1155.25 986.156L2077 642.363" stroke="#535382" stroke-width="1.5"/>
<path d="M1155.25 965.02L2077 461.711" stroke="#535382" stroke-width="1.5"/>
<path d="M1155.25 943.885L2077 253.877" stroke="#535382" stroke-width="1.5"/>
<path d="M1155.25 922.746L2077 1.00394" stroke="#535382" stroke-width="1.5"/>
<circle cx="1039" cy="1042" r="620" fill="url(#paint0_radial_1578_4955)" fill-opacity="0.9"/>
<defs>
<radialGradient id="paint0_radial_1578_4955" cx="0" cy="0" r="1" gradientUnits="userSpaceOnUse" gradientTransform="translate(1039 1042) rotate(90) scale(1320.87)">
<stop offset="0.143576" stop-color="#110F2A"/>
<stop offset="0.35" stop-color="#110F2A" stop-opacity="0.08"/>
</radialGradient>
</defs>
</svg>
